<svg width="29" height="24" viewBox="0 0 29 24" fill="none" xmlns="http://www.w3.org/2000/svg">
<rect width="29" height="24" rx="10" fill="#E5F083"/>
<path fill-rule="evenodd" clip-rule="evenodd" d="M19.4674 5.66484C19.0719 5.23914 18.5357 5 17.9766 5C17.4174 5 16.8812 5.23914 16.4858 5.66484L15.9889 6.20074L19.4681 9.94745L19.9643 9.41231C20.1601 9.20145 20.3155 8.95111 20.4215 8.67559C20.5274 8.40006 20.582 8.10475 20.582 7.80652C20.582 7.5083 20.5274 7.21299 20.4215 6.93746C20.3155 6.66194 20.1601 6.4116 19.9643 6.20074L19.4674 5.66484ZM18.4735 11.0177L14.9943 7.27101L8.60526 14.1521C8.46545 14.3027 8.36778 14.4926 8.32341 14.7001L7.60016 18.0722C7.57321 18.1973 7.5763 18.3278 7.60914 18.4514C7.64198 18.5749 7.70349 18.6874 7.78787 18.7783C7.87224 18.8692 7.97672 18.9354 8.09144 18.9708C8.20616 19.0061 8.32735 19.0095 8.4436 18.9804L11.5756 18.2023C11.768 18.1544 11.9441 18.0493 12.0837 17.8988L18.4735 11.0177Z" fill="black"/>
</svg>
