<svg width="40" height="34" viewBox="0 0 40 34" fill="none" xmlns="http://www.w3.org/2000/svg">
<path d="M11.8468 0H28.3365C34.6183 0 39.7222 4.42 39.7222 9.86V24.14C39.7222 26.755 38.5227 29.263 36.3874 31.1121C34.2522 32.9612 31.3562 34 28.3365 34H11.8468C5.56505 34 0.461105 29.58 0.461105 24.14V9.86C0.461105 7.24497 1.66067 4.73704 3.79591 2.88793C5.93114 1.03882 8.82715 0 11.8468 0ZM11.4542 3.4C9.57993 3.4 7.78241 4.04478 6.45709 5.19251C5.13177 6.34023 4.38722 7.89687 4.38722 9.52V24.48C4.38722 27.863 7.54774 30.6 11.4542 30.6H28.7291C30.6034 30.6 32.4009 29.9552 33.7262 28.8075C35.0516 27.6598 35.7961 26.1031 35.7961 24.48V9.52C35.7961 6.137 32.6356 3.4 28.7291 3.4H11.4542ZM30.3977 5.95C31.0485 5.95 31.6726 6.17388 32.1328 6.5724C32.593 6.97091 32.8515 7.51142 32.8515 8.075C32.8515 8.63859 32.593 9.17909 32.1328 9.5776C31.6726 9.97612 31.0485 10.2 30.3977 10.2C29.7469 10.2 29.1228 9.97612 28.6626 9.5776C28.2024 9.17909 27.9439 8.63859 27.9439 8.075C27.9439 7.51142 28.2024 6.97091 28.6626 6.5724C29.1228 6.17388 29.7469 5.95 30.3977 5.95ZM20.0917 8.5C22.6948 8.5 25.1914 9.39553 27.0321 10.9896C28.8728 12.5837 29.9069 14.7457 29.9069 17C29.9069 19.2543 28.8728 21.4163 27.0321 23.0104C25.1914 24.6045 22.6948 25.5 20.0917 25.5C17.4885 25.5 14.9919 24.6045 13.1512 23.0104C11.3105 21.4163 10.2764 19.2543 10.2764 17C10.2764 14.7457 11.3105 12.5837 13.1512 10.9896C14.9919 9.39553 17.4885 8.5 20.0917 8.5ZM20.0917 11.9C18.5298 11.9 17.0318 12.4373 15.9274 13.3938C14.823 14.3502 14.2025 15.6474 14.2025 17C14.2025 18.3526 14.823 19.6498 15.9274 20.6062C17.0318 21.5627 18.5298 22.1 20.0917 22.1C21.6536 22.1 23.1515 21.5627 24.2559 20.6062C25.3604 19.6498 25.9808 18.3526 25.9808 17C25.9808 15.6474 25.3604 14.3502 24.2559 13.3938C23.1515 12.4373 21.6536 11.9 20.0917 11.9Z" fill="white"/>
</svg>
