<svg width="259" height="55" viewBox="0 0 259 55" fill="none" xmlns="http://www.w3.org/2000/svg">
<g filter="url(#filter0_i_10_46)">
<path d="M26.1064 35.2875C20.532 35.2371 16.0512 30.6773 16.0983 25.1028C16.1454 19.5284 20.7025 15.0503 26.2769 15.1008L56.9022 15.3779L56.7317 35.5646L26.1064 35.2875Z" fill="#111B0D"/>
<path d="M16.9983 11.206C16.95 5.19415 21.7843 0.281434 27.7961 0.233098C33.8079 0.184762 38.7206 5.01911 38.769 11.0309L39.0972 51.8595L17.3266 52.0346L16.9983 11.206Z" fill="#BED06A"/>
<path d="M23.9692 18.1122C30.0053 18.2367 34.803 23.231 34.6852 29.2672C34.5674 35.3034 29.5787 40.0958 23.5426 39.9713L0.313843 39.4921L0.74043 17.6329L23.9692 18.1122Z" fill="#859539"/>
<path d="M18.1689 17.9284C25.1496 16.8934 27.1682 18.3473 30.0905 20.2233C34.2367 22.8851 35.3121 27.1747 35.3043 31.4304C35.0503 33.7011 28.9269 33.5789 22.1792 30.6853C18.033 28.0234 16.2516 22.4904 18.1689 17.9284Z" fill="#111B0D"/>
</g>
<mask id="path-5-outside-1_10_46" maskUnits="userSpaceOnUse" x="87.1944" y="9" width="170" height="36" fill="black">
<rect fill="white" x="87.1944" y="9" width="170" height="36"/>
<path d="M88.1944 43V10.35H89.2944L110.594 34.85C111.361 35.7167 112.061 36.5833 112.694 37.45C113.361 38.2833 113.711 38.7167 113.744 38.75C113.678 37.95 113.644 36.3833 113.644 34.05V10.55H115.944V43.2H114.844L93.1444 18.3L90.3944 14.95C90.461 15.6167 90.4944 17.1833 90.4944 19.65V43H88.1944ZM127.94 43V10.55H130.24V43H127.94ZM152.847 36.2L163.697 10.55H166.097L152.147 43.2H150.797L136.847 10.55H139.347L151.597 39.4C151.764 38.9 152.18 37.8333 152.847 36.2ZM171.826 31.75L167.176 43H164.826L178.426 10.35H179.776L193.476 43H190.926L186.226 31.75H171.826ZM178.976 14.05C178.476 15.55 178.026 16.8 177.626 17.8L172.626 29.8H185.426L180.476 17.85C179.709 15.9833 179.209 14.7167 178.976 14.05ZM200.06 43V10.7C202.926 10.4667 205.36 10.35 207.36 10.35C210.426 10.35 212.96 11.15 214.96 12.75C216.96 14.3167 217.96 16.5667 217.96 19.5C217.96 21.4667 217.393 23.2833 216.26 24.95C215.126 26.6167 213.843 27.9667 212.41 29C216.376 34.2667 218.826 37.4167 219.76 38.45C221.66 40.4167 223.726 41.5333 225.96 41.8L225.91 43.35C224.043 43.3167 222.526 43.05 221.36 42.55C220.193 42.0167 219.026 41.1333 217.86 39.9C216.726 38.6667 214.21 35.35 210.31 29.95C207.61 29.95 204.96 29.8667 202.36 29.7V43H200.06ZM209.06 28.05C210.36 28.05 211.76 27.1833 213.26 25.45C214.76 23.7167 215.51 21.7 215.51 19.4C215.51 17.1 214.726 15.35 213.16 14.15C211.593 12.95 209.56 12.35 207.06 12.35C205.726 12.35 204.16 12.4167 202.36 12.55V27.8C204.76 27.9667 206.993 28.05 209.06 28.05ZM233.3 31.75L228.65 43H226.3L239.9 10.35H241.25L254.95 43H252.4L247.7 31.75H233.3ZM240.45 14.05C239.95 15.55 239.5 16.8 239.1 17.8L234.1 29.8H246.9L241.95 17.85C241.184 15.9833 240.684 14.7167 240.45 14.05Z"/>
</mask>
<path d="M88.1944 43V10.35H89.2944L110.594 34.85C111.361 35.7167 112.061 36.5833 112.694 37.45C113.361 38.2833 113.711 38.7167 113.744 38.75C113.678 37.95 113.644 36.3833 113.644 34.05V10.55H115.944V43.2H114.844L93.1444 18.3L90.3944 14.95C90.461 15.6167 90.4944 17.1833 90.4944 19.65V43H88.1944ZM127.94 43V10.55H130.24V43H127.94ZM152.847 36.2L163.697 10.55H166.097L152.147 43.2H150.797L136.847 10.55H139.347L151.597 39.4C151.764 38.9 152.18 37.8333 152.847 36.2ZM171.826 31.75L167.176 43H164.826L178.426 10.35H179.776L193.476 43H190.926L186.226 31.75H171.826ZM178.976 14.05C178.476 15.55 178.026 16.8 177.626 17.8L172.626 29.8H185.426L180.476 17.85C179.709 15.9833 179.209 14.7167 178.976 14.05ZM200.06 43V10.7C202.926 10.4667 205.36 10.35 207.36 10.35C210.426 10.35 212.96 11.15 214.96 12.75C216.96 14.3167 217.96 16.5667 217.96 19.5C217.96 21.4667 217.393 23.2833 216.26 24.95C215.126 26.6167 213.843 27.9667 212.41 29C216.376 34.2667 218.826 37.4167 219.76 38.45C221.66 40.4167 223.726 41.5333 225.96 41.8L225.91 43.35C224.043 43.3167 222.526 43.05 221.36 42.55C220.193 42.0167 219.026 41.1333 217.86 39.9C216.726 38.6667 214.21 35.35 210.31 29.95C207.61 29.95 204.96 29.8667 202.36 29.7V43H200.06ZM209.06 28.05C210.36 28.05 211.76 27.1833 213.26 25.45C214.76 23.7167 215.51 21.7 215.51 19.4C215.51 17.1 214.726 15.35 213.16 14.15C211.593 12.95 209.56 12.35 207.06 12.35C205.726 12.35 204.16 12.4167 202.36 12.55V27.8C204.76 27.9667 206.993 28.05 209.06 28.05ZM233.3 31.75L228.65 43H226.3L239.9 10.35H241.25L254.95 43H252.4L247.7 31.75H233.3ZM240.45 14.05C239.95 15.55 239.5 16.8 239.1 17.8L234.1 29.8H246.9L241.95 17.85C241.184 15.9833 240.684 14.7167 240.45 14.05Z" fill="#335128"/>
<path d="M88.1944 43H87.1944V44H88.1944V43ZM88.1944 10.35V9.35H87.1944V10.35H88.1944ZM89.2944 10.35L90.049 9.69389L89.75 9.35H89.2944V10.35ZM110.594 34.85L109.84 35.5061L109.845 35.5126L110.594 34.85ZM112.694 37.45L111.887 38.04L111.9 38.0576L111.913 38.0747L112.694 37.45ZM113.744 38.75L113.037 39.4571L114.968 41.3875L114.741 38.667L113.744 38.75ZM113.644 10.55V9.55H112.644V10.55H113.644ZM115.944 10.55H116.944V9.55H115.944V10.55ZM115.944 43.2V44.2H116.944V43.2H115.944ZM114.844 43.2L114.09 43.857L114.389 44.2H114.844V43.2ZM93.1444 18.3L92.3714 18.9345L92.3808 18.9459L92.3905 18.957L93.1444 18.3ZM90.3944 14.95L91.1673 14.3155L89.0705 11.7612L89.3993 15.0495L90.3944 14.95ZM90.4944 43V44H91.4944V43H90.4944ZM89.1944 43V10.35H87.1944V43H89.1944ZM88.1944 11.35H89.2944V9.35H88.1944V11.35ZM88.5397 11.0061L109.84 35.5061L111.349 34.1939L90.049 9.69389L88.5397 11.0061ZM109.845 35.5126C110.593 36.3578 111.273 37.2003 111.887 38.04L113.502 36.86C112.849 35.9664 112.129 35.0756 111.343 34.1874L109.845 35.5126ZM111.913 38.0747C112.247 38.4917 112.502 38.8098 112.679 39.0283C112.767 39.1374 112.837 39.2232 112.887 39.2847C112.915 39.318 112.984 39.4043 113.037 39.4571L114.451 38.0429C114.488 38.079 114.501 38.0986 114.433 38.0153C114.387 37.9601 114.322 37.8793 114.235 37.7717C114.061 37.5569 113.808 37.2416 113.475 36.8253L111.913 38.0747ZM114.741 38.667C114.678 37.915 114.644 36.3893 114.644 34.05H112.644C112.644 36.3774 112.677 37.985 112.748 38.833L114.741 38.667ZM114.644 34.05V10.55H112.644V34.05H114.644ZM113.644 11.55H115.944V9.55H113.644V11.55ZM114.944 10.55V43.2H116.944V10.55H114.944ZM115.944 42.2H114.844V44.2H115.944V42.2ZM115.598 42.543L93.8982 17.643L92.3905 18.957L114.09 43.857L115.598 42.543ZM93.9173 17.6655L91.1673 14.3155L89.6214 15.5845L92.3714 18.9345L93.9173 17.6655ZM89.3993 15.0495C89.46 15.656 89.4944 17.1675 89.4944 19.65H91.4944C91.4944 17.1991 91.4621 15.5773 91.3894 14.8505L89.3993 15.0495ZM89.4944 19.65V43H91.4944V19.65H89.4944ZM90.4944 42H88.1944V44H90.4944V42ZM127.94 43H126.94V44H127.94V43ZM127.94 10.55V9.55H126.94V10.55H127.94ZM130.24 10.55H131.24V9.55H130.24V10.55ZM130.24 43V44H131.24V43H130.24ZM128.94 43V10.55H126.94V43H128.94ZM127.94 11.55H130.24V9.55H127.94V11.55ZM129.24 10.55V43H131.24V10.55H129.24ZM130.24 42H127.94V44H130.24V42ZM152.847 36.2L151.926 35.8104L151.921 35.8221L152.847 36.2ZM163.697 10.55V9.55H163.034L162.776 10.1604L163.697 10.55ZM166.097 10.55L167.017 10.9429L167.612 9.55H166.097V10.55ZM152.147 43.2V44.2H152.807L153.067 43.5929L152.147 43.2ZM150.797 43.2L149.878 43.5929L150.137 44.2H150.797V43.2ZM136.847 10.55V9.55H135.332L135.928 10.9429L136.847 10.55ZM139.347 10.55L140.268 10.1592L140.009 9.55H139.347V10.55ZM151.597 39.4L150.677 39.7908L151.71 42.2241L152.546 39.7162L151.597 39.4ZM153.768 36.5896L164.618 10.9396L162.776 10.1604L151.926 35.8104L153.768 36.5896ZM163.697 11.55H166.097V9.55H163.697V11.55ZM165.178 10.1571L151.228 42.8071L153.067 43.5929L167.017 10.9429L165.178 10.1571ZM152.147 42.2H150.797V44.2H152.147V42.2ZM151.717 42.8071L137.767 10.1571L135.928 10.9429L149.878 43.5929L151.717 42.8071ZM136.847 11.55H139.347V9.55H136.847V11.55ZM138.427 10.9408L150.677 39.7908L152.518 39.0092L140.268 10.1592L138.427 10.9408ZM152.546 39.7162C152.7 39.2534 153.103 38.2188 153.773 36.5779L151.921 35.8221C151.258 37.4479 150.827 38.5466 150.648 39.0838L152.546 39.7162ZM171.826 31.75V30.75H171.157L170.901 31.368L171.826 31.75ZM167.176 43V44H167.844L168.1 43.382L167.176 43ZM164.826 43L163.902 42.6155L163.326 44H164.826V43ZM178.426 10.35V9.35H177.759L177.502 9.96548L178.426 10.35ZM179.776 10.35L180.698 9.96308L180.44 9.35H179.776V10.35ZM193.476 43V44H194.98L194.398 42.6131L193.476 43ZM190.926 43L190.003 43.3855L190.26 44H190.926V43ZM186.226 31.75L187.148 31.3645L186.892 30.75H186.226V31.75ZM178.976 14.05L179.919 13.7196L178.953 10.957L178.027 13.7338L178.976 14.05ZM177.626 17.8L178.549 18.1846L178.551 18.178L178.554 18.1714L177.626 17.8ZM172.626 29.8L171.703 29.4154L171.126 30.8H172.626V29.8ZM185.426 29.8V30.8H186.922L186.349 29.4173L185.426 29.8ZM180.476 17.85L179.551 18.2299L179.552 18.2327L180.476 17.85ZM170.901 31.368L166.251 42.618L168.1 43.382L172.75 32.132L170.901 31.368ZM167.176 42H164.826V44H167.176V42ZM165.749 43.3845L179.349 10.7345L177.502 9.96548L163.902 42.6155L165.749 43.3845ZM178.426 11.35H179.776V9.35H178.426V11.35ZM178.853 10.7369L192.553 43.3869L194.398 42.6131L180.698 9.96308L178.853 10.7369ZM193.476 42H190.926V44H193.476V42ZM191.848 42.6145L187.148 31.3645L185.303 32.1355L190.003 43.3855L191.848 42.6145ZM186.226 30.75H171.826V32.75H186.226V30.75ZM178.027 13.7338C177.531 15.2229 177.087 16.453 176.697 17.4286L178.554 18.1714C178.964 17.147 179.421 15.8771 179.924 14.3662L178.027 13.7338ZM176.703 17.4154L171.703 29.4154L173.549 30.1846L178.549 18.1846L176.703 17.4154ZM172.626 30.8H185.426V28.8H172.626V30.8ZM186.349 29.4173L181.399 17.4673L179.552 18.2327L184.502 30.1827L186.349 29.4173ZM181.401 17.4701C180.633 15.6002 180.143 14.3574 179.919 13.7196L178.032 14.3803C178.275 15.0759 178.785 16.3664 179.551 18.2299L181.401 17.4701ZM200.06 43H199.06V44H200.06V43ZM200.06 10.7L199.978 9.70329L199.06 9.77809V10.7H200.06ZM214.96 12.75L214.335 13.5309L214.343 13.5372L214.96 12.75ZM216.26 24.95L217.087 25.5123L216.26 24.95ZM212.41 29L211.825 28.1888L210.996 28.786L211.611 29.6016L212.41 29ZM219.76 38.45L219.017 39.1203L219.029 39.1327L219.04 39.1448L219.76 38.45ZM225.96 41.8L226.959 41.8322L226.989 40.9158L226.078 40.8071L225.96 41.8ZM225.91 43.35L225.892 44.3498L226.877 44.3674L226.909 43.3822L225.91 43.35ZM221.36 42.55L220.944 43.4595L220.955 43.4644L220.966 43.4691L221.36 42.55ZM217.86 39.9L217.123 40.5766L217.128 40.5819L217.133 40.5872L217.86 39.9ZM210.31 29.95L211.12 29.3645L210.821 28.95H210.31V29.95ZM202.36 29.7L202.424 28.702L201.36 28.6338V29.7H202.36ZM202.36 43V44H203.36V43H202.36ZM213.26 25.45L212.503 24.7956L213.26 25.45ZM213.16 14.15L213.768 13.3561L213.16 14.15ZM202.36 12.55L202.286 11.5527L201.36 11.6213V12.55H202.36ZM202.36 27.8H201.36V28.733L202.29 28.7976L202.36 27.8ZM201.06 43V10.7H199.06V43H201.06ZM200.141 11.6967C202.991 11.4647 205.396 11.35 207.36 11.35V9.35C205.324 9.35 202.862 9.46863 199.978 9.70329L200.141 11.6967ZM207.36 11.35C210.246 11.35 212.545 12.0993 214.335 13.5309L215.584 11.9691C213.374 10.2007 210.607 9.35 207.36 9.35V11.35ZM214.343 13.5372C216.062 14.8836 216.96 16.8204 216.96 19.5H218.96C218.96 16.3129 217.858 13.7498 215.576 11.9628L214.343 13.5372ZM216.96 19.5C216.96 21.2609 216.456 22.8825 215.433 24.3877L217.087 25.5123C218.33 23.6842 218.96 21.6724 218.96 19.5H216.96ZM215.433 24.3877C214.356 25.9713 213.151 27.2326 211.825 28.1888L212.994 29.8112C214.535 28.7008 215.897 27.262 217.087 25.5123L215.433 24.3877ZM211.611 29.6016C215.564 34.851 218.047 38.0455 219.017 39.1203L220.502 37.7797C219.606 36.7878 217.188 33.6823 213.208 28.3984L211.611 29.6016ZM219.04 39.1448C221.065 41.2401 223.333 42.4935 225.841 42.7929L226.078 40.8071C224.12 40.5732 222.255 39.5933 220.479 37.7552L219.04 39.1448ZM224.96 41.7678L224.91 43.3178L226.909 43.3822L226.959 41.8322L224.96 41.7678ZM225.927 42.3502C224.135 42.3181 222.759 42.0618 221.754 41.6309L220.966 43.4691C222.293 44.0382 223.951 44.3152 225.892 44.3498L225.927 42.3502ZM221.775 41.6405C220.757 41.1749 219.691 40.3813 218.586 39.2128L217.133 40.5872C218.361 41.8853 219.629 42.8585 220.944 43.4595L221.775 41.6405ZM218.596 39.2234C217.511 38.0432 215.033 34.7822 211.12 29.3645L209.499 30.5355C213.386 35.9178 215.941 39.2901 217.123 40.5766L218.596 39.2234ZM210.31 28.95C207.63 28.95 205.002 28.8673 202.424 28.702L202.296 30.698C204.918 30.866 207.589 30.95 210.31 30.95V28.95ZM201.36 29.7V43H203.36V29.7H201.36ZM202.36 42H200.06V44H202.36V42ZM209.06 29.05C210.808 29.05 212.462 27.8992 214.016 26.1044L212.503 24.7956C211.057 26.4674 209.911 27.05 209.06 27.05V29.05ZM214.016 26.1044C215.674 24.1886 216.51 21.9394 216.51 19.4H214.51C214.51 21.4606 213.846 23.2447 212.503 24.7956L214.016 26.1044ZM216.51 19.4C216.51 16.847 215.624 14.7781 213.768 13.3561L212.552 14.9439C213.828 15.9219 214.51 17.353 214.51 19.4H216.51ZM213.768 13.3561C211.985 11.9903 209.72 11.35 207.06 11.35V13.35C209.399 13.35 211.201 13.9097 212.552 14.9439L213.768 13.3561ZM207.06 11.35C205.695 11.35 204.102 11.4182 202.286 11.5527L202.433 13.5473C204.217 13.4152 205.758 13.35 207.06 13.35V11.35ZM201.36 12.55V27.8H203.36V12.55H201.36ZM202.29 28.7976C204.71 28.9656 206.966 29.05 209.06 29.05V27.05C207.019 27.05 204.809 26.9677 202.429 26.8024L202.29 28.7976ZM233.3 31.75V30.75H232.631L232.376 31.368L233.3 31.75ZM228.65 43V44H229.319L229.574 43.382L228.65 43ZM226.3 43L225.377 42.6155L224.8 44H226.3V43ZM239.9 10.35V9.35H239.233L238.977 9.96548L239.9 10.35ZM241.25 10.35L242.172 9.96308L241.915 9.35H241.25V10.35ZM254.95 43V44H256.454L255.872 42.6131L254.95 43ZM252.4 43L251.477 43.3855L251.734 44H252.4V43ZM247.7 31.75L248.623 31.3645L248.366 30.75H247.7V31.75ZM240.45 14.05L241.394 13.7196L240.427 10.957L239.502 13.7338L240.45 14.05ZM239.1 17.8L240.023 18.1846L240.026 18.178L240.029 18.1714L239.1 17.8ZM234.1 29.8L233.177 29.4154L232.6 30.8H234.1V29.8ZM246.9 29.8V30.8H248.397L247.824 29.4173L246.9 29.8ZM241.95 17.85L241.025 18.2299L241.026 18.2327L241.95 17.85ZM232.376 31.368L227.726 42.618L229.574 43.382L234.224 32.132L232.376 31.368ZM228.65 42H226.3V44H228.65V42ZM227.223 43.3845L240.823 10.7345L238.977 9.96548L225.377 42.6155L227.223 43.3845ZM239.9 11.35H241.25V9.35H239.9V11.35ZM240.328 10.7369L254.028 43.3869L255.872 42.6131L242.172 9.96308L240.328 10.7369ZM254.95 42H252.4V44H254.95V42ZM253.323 42.6145L248.623 31.3645L246.777 32.1355L251.477 43.3855L253.323 42.6145ZM247.7 30.75H233.3V32.75H247.7V30.75ZM239.502 13.7338C239.005 15.2229 238.562 16.453 238.172 17.4286L240.029 18.1714C240.438 17.147 240.895 15.8771 241.399 14.3662L239.502 13.7338ZM238.177 17.4154L233.177 29.4154L235.023 30.1846L240.023 18.1846L238.177 17.4154ZM234.1 30.8H246.9V28.8H234.1V30.8ZM247.824 29.4173L242.874 17.4673L241.026 18.2327L245.976 30.1827L247.824 29.4173ZM242.875 17.4701C242.107 15.6002 241.617 14.3574 241.394 13.7196L239.506 14.3803C239.75 15.0759 240.26 16.3664 241.025 18.2299L242.875 17.4701Z" fill="#335128" mask="url(#path-5-outside-1_10_46)"/>
<defs>
<filter id="filter0_i_10_46" x="0.313843" y="0.232727" width="56.5883" height="55.8018" filterUnits="userSpaceOnUse" color-interpolation-filters="sRGB">
<feFlood flood-opacity="0" result="BackgroundImageFix"/>
<feBlend mode="normal" in="SourceGraphic" in2="BackgroundImageFix" result="shape"/>
<feColorMatrix in="SourceAlpha" type="matrix" values="0 0 0 0 0 0 0 0 0 0 0 0 0 0 0 0 0 0 127 0" result="hardAlpha"/>
<feOffset dy="4"/>
<feGaussianBlur stdDeviation="2"/>
<feComposite in2="hardAlpha" operator="arithmetic" k2="-1" k3="1"/>
<feColorMatrix type="matrix" values="0 0 0 0 0 0 0 0 0 0 0 0 0 0 0 0 0 0 0.25 0"/>
<feBlend mode="normal" in2="shape" result="effect1_innerShadow_10_46"/>
</filter>
</defs>
</svg>
