<svg width="34" height="21" viewBox="0 0 34 21" fill="none" xmlns="http://www.w3.org/2000/svg">
<path d="M20.1136 17.0311C19.6768 17.4077 19.4363 17.9106 19.4439 18.4316C19.4516 18.9527 19.7067 19.45 20.1544 19.8166C20.6021 20.1832 21.2065 20.3897 21.8374 20.3916C22.4684 20.3936 23.0754 20.1908 23.5278 19.8269L33.1205 11.8383C33.57 11.4638 33.8214 10.9574 33.8192 10.4304C33.817 9.90351 33.5615 9.39919 33.1088 9.0284L23.4505 1.11936C22.9951 0.759251 22.3865 0.561464 21.7555 0.568599C21.1246 0.575734 20.5219 0.787223 20.0773 1.15751C19.6326 1.5278 19.3816 2.02726 19.3783 2.54832C19.375 3.06938 19.6196 3.57035 20.0595 3.94333L25.5961 8.47719L2.52857 8.57251C1.89036 8.57515 1.27915 8.78704 0.829404 9.16158C0.379661 9.53612 0.128224 10.0426 0.130401 10.5697C0.132579 11.0967 0.388194 11.6011 0.841017 11.9719C1.29384 12.3427 1.90678 12.5496 2.54499 12.5469L25.6126 12.4516L20.1136 17.0311Z" fill="#2C4F1D"/>
</svg>
